<svg width="96" height="96" viewBox="0 0 96 96" fill="none" xmlns="http://www.w3.org/2000/svg">
<path d="M87.4278 85.7145C89.5857 85.7145 91.4556 85.002 93.0451 83.5951L65.8468 56.3957C65.1942 56.863 64.5617 57.3174 63.9642 57.7495C61.9288 59.2491 60.2769 60.4193 59.0084 61.2578C57.74 62.0983 56.0525 62.9549 53.946 63.8295C51.8381 64.7052 49.8744 65.1416 48.0526 65.1416H47.9993H47.946C46.1241 65.1416 44.1603 64.7054 42.0526 63.8295C39.9449 62.9549 38.2573 62.0983 36.9902 61.2578C35.7219 60.4193 34.0708 59.2493 32.0344 57.7495C31.4669 57.3335 30.8375 56.877 30.1571 56.3884L2.95349 83.5951C4.54287 85.002 6.41392 85.7145 8.57167 85.7145H87.4278Z" fill="#3E128F"/>
<path d="M5.41129 39.2682C3.37607 37.9114 1.57126 36.3574 0 34.6069V75.9886L23.9725 52.0161C19.1766 48.6679 12.9974 44.4235 5.41129 39.2682Z" fill="#3E128F"/>
<path d="M90.6429 39.2682C83.346 44.207 77.1443 48.4587 72.037 52.0257L95.9999 75.9896V34.6069C94.4635 36.3222 92.6781 37.8751 90.6429 39.2682Z" fill="#3E128F"/>
<path d="M87.4279 10.2856H8.57198C5.82093 10.2856 3.70588 11.2146 2.22421 13.0707C0.741323 14.9276 0.00109863 17.2499 0.00109863 20.0349C0.00109863 22.2845 0.983417 24.722 2.94718 27.3481C4.91095 29.9731 7.00055 32.035 9.21495 33.5348C10.4289 34.3925 14.0898 36.9376 20.1975 41.1691C23.4946 43.4539 26.3619 45.4454 28.8259 47.1639C30.9262 48.6273 32.7374 49.8945 34.2329 50.9462C34.4045 51.0667 34.6745 51.2598 35.0329 51.516C35.4189 51.7933 35.9075 52.1452 36.5102 52.5804C37.6708 53.4198 38.635 54.0983 39.4029 54.6167C40.1698 55.1352 41.099 55.7144 42.189 56.3575C43.2782 56.9998 44.3055 57.4828 45.2697 57.804C46.234 58.125 47.1268 58.2861 47.948 58.2861H48.0014H48.0547C48.8758 58.2861 49.7687 58.125 50.7332 57.804C51.6973 57.4828 52.7237 57.0008 53.8137 56.3575C54.9027 55.7144 55.8306 55.134 56.6 54.6167C57.3679 54.0983 58.3321 53.42 59.4929 52.5804C60.0944 52.1452 60.5829 51.7931 60.969 51.5169C61.3275 51.2596 61.5973 51.0677 61.77 50.9462C62.935 50.1356 64.7504 48.8735 67.1913 47.1787C71.6326 44.0928 78.1735 39.5509 86.8414 33.5348C89.4484 31.714 91.6263 29.5167 93.3768 26.946C95.1241 24.3754 96.0001 21.6789 96.0001 18.8574C96.0001 16.5001 95.1507 14.483 93.4557 12.803C91.7588 11.125 89.7494 10.2856 87.4279 10.2856Z" fill="#3E128F"/>
</svg>
