<svg width="150" height="7" viewBox="0 0 150 7" fill="none" xmlns="http://www.w3.org/2000/svg">
<path d="M138.559 3.10736H12.1468C12.0055 3.53109 11.8643 3.5311 11.8643 3.24861C11.8643 3.10737 12.0055 2.96612 12.1468 4.51979H138.559C138.701 3.10736 138.842 3.10737 138.842 3.24861C138.842 3.5311 138.701 3.53109 138.559 3.10736Z" fill="black"/>
<path d="M140.114 3.38987C140.114 3.38987 142.515 5.08478 142.091 6.7797C142.091 6.7797 143.221 5.791 142.373 4.66105C141.667 3.67235 142.938 5.64976 144.492 3.38987C142.938 0.988737 141.667 3.10735 142.373 2.11865C143.08 0.847459 142.091 0 142.091 0C142.232 1.97741 140.114 3.38987 140.114 3.38987Z" fill="black"/>
<path d="M142.09 4.37852C142.09 4.37852 143.927 7.90961 146.893 5.22599C149.294 3.10734 150 3.2486 150 3.2486C150 3.2486 148.87 3.24857 146.893 1.41241C144.068 -1.27121 142.232 2.40113 142.232 2.40113L142.09 4.37852Z" fill="black"/>
<path d="M139.549 4.94357C140.407 4.94357 141.102 4.248 141.102 3.38993C141.102 2.53186 140.407 1.83624 139.549 1.83624C138.691 1.83624 137.995 2.53186 137.995 3.38993C137.995 4.248 138.691 4.94357 139.549 4.94357Z" fill="black"/>
<path d="M9.88685 3.38987C9.88685 3.38987 7.48572 1.69492 7.90945 0C7.90945 0 6.77949 0.988703 7.62695 2.11865C8.33316 3.10735 7.06198 1.12998 5.5083 3.38987C7.06198 5.79101 8.33316 3.67235 7.62695 4.66105C6.92073 5.93224 7.90945 6.7797 7.90945 6.7797C7.76821 4.66105 9.88685 3.38987 9.88685 3.38987Z" fill="black"/>
<path d="M7.90963 2.25985C7.90963 2.25985 6.07347 -1.27124 3.10737 1.41238C0.706233 3.53103 0 3.38982 0 3.38982C0 3.38982 1.12996 3.3898 3.10737 5.22596C5.93223 7.90958 7.76838 4.23724 7.76838 4.23724L7.90963 2.25985Z" fill="black"/>
<path d="M10.4518 4.80231C11.3098 4.80231 12.0054 4.1067 12.0054 3.24863C12.0054 2.39056 11.3098 1.69495 10.4518 1.69495C9.59368 1.69495 8.89807 2.39056 8.89807 3.24863C8.89807 4.1067 9.59368 4.80231 10.4518 4.80231Z" fill="black"/>
</svg>
