<svg width="200" height="10" viewBox="0 0 200 10" fill="none" xmlns="http://www.w3.org/2000/svg">
<path d="M184.746 4.14316H16.1958C16.0074 4.70813 15.8191 4.70814 15.8191 4.33149C15.8191 4.14317 16.0074 3.95483 16.1958 6.0264H184.746C184.934 4.14316 185.123 4.14317 185.123 4.33149C185.123 4.70814 184.934 4.70813 184.746 4.14316Z" fill="white"/>
<path d="M186.818 4.51983C186.818 4.51983 190.019 6.77971 189.455 9.0396C189.455 9.0396 190.961 7.72133 189.831 6.21474C188.89 4.89647 190.584 7.53302 192.656 4.51983C190.584 1.31832 188.89 4.14313 189.831 2.82486C190.773 1.12995 189.455 0 189.455 0C189.643 2.63654 186.818 4.51983 186.818 4.51983Z" fill="white"/>
<path d="M189.454 5.83806C189.454 5.83806 191.902 10.5462 195.857 6.96802C199.058 4.14315 200 4.33149 200 4.33149C200 4.33149 198.493 4.33145 195.857 1.88324C192.09 -1.69492 189.642 3.20153 189.642 3.20153L189.454 5.83806Z" fill="white"/>
<path d="M186.065 6.59142C187.209 6.59142 188.136 5.66399 188.136 4.5199C188.136 3.3758 187.209 2.44832 186.065 2.44832C184.921 2.44832 183.993 3.3758 183.993 4.5199C183.993 5.66399 184.921 6.59142 186.065 6.59142Z" fill="white"/>
<path d="M13.1825 4.51983C13.1825 4.51983 9.98105 2.25989 10.546 0C10.546 0 9.0394 1.31827 10.1693 2.82486C11.111 4.14313 9.41605 1.50664 7.34448 4.51983C9.41605 7.72134 11.111 4.89647 10.1693 6.21474C9.22773 7.90965 10.546 9.0396 10.546 9.0396C10.3577 6.21474 13.1825 4.51983 13.1825 4.51983Z" fill="white"/>
<path d="M10.5462 3.01314C10.5462 3.01314 8.09797 -1.69497 4.14316 1.88319C0.941644 4.70805 0 4.51977 0 4.51977C0 4.51977 1.50662 4.51975 4.14316 6.96797C7.90964 10.5461 10.3578 5.64967 10.3578 5.64967L10.5462 3.01314Z" fill="white"/>
<path d="M13.9357 6.40308C15.0798 6.40308 16.0073 5.47559 16.0073 4.3315C16.0073 3.1874 15.0798 2.25992 13.9357 2.25992C12.7916 2.25992 11.8641 3.1874 11.8641 4.3315C11.8641 5.47559 12.7916 6.40308 13.9357 6.40308Z" fill="white"/>
</svg>
