<svg xmlns="http://www.w3.org/2000/svg" width="122" height="167" viewBox="0 0 122 167">
  <g id="html-5" transform="translate(-0.445)">
    <path id="Caminho_1" data-name="Caminho 1" d="M122.445,70.766,111.331,193.572,61.37,207.232,11.548,193.591.445,70.766h122Z" transform="translate(0 -40.232)" fill="#e44d26"/>
    <path id="Caminho_2" data-name="Caminho 2" d="M128,198.153l36.424-10.1,8.569-96H128Z" transform="translate(-60.592 -40.705)" fill="#f16529"/>
    <path id="Caminho_3" data-name="Caminho 3" d="M62.977,137.775H82.471V124H47.917l.33,3.7,3.387,37.974H82.471v-13.78H64.236Zm3.106,34.781H52.249l1.93,21.637,28.227,7.836.063-.017V187.674l-.06.016-15.347-4.144-.981-10.99Z" transform="translate(-23.754 -62.448)" fill="#ebebeb"/>
    <path id="Caminho_4" data-name="Caminho 4" d="M24.18,0h7.933V6.919H39.37V0H47.3V20.951H39.371V13.936H32.114v7.016H24.18V0ZM57.735,6.948H50.753V0h21.9V6.948H65.67v14H57.737v-14h0ZM76.133,0h8.272l5.088,7.362L94.577,0h8.275V20.951h-7.9V10.567l-5.458,7.449h-.137L83.9,10.567V20.951H76.133ZM106.8,0h7.935V14.026h11.156v6.925H106.8V0Z" transform="translate(-13.494)" fill="#fff"/>
    <path id="Caminho_5" data-name="Caminho 5" d="M127.889,165.666h16.969l-1.6,17.872-15.369,4.148v14.336l28.25-7.829.207-2.328,3.239-36.278.336-3.7H127.889Zm0-27.925v.034h33.285l.276-3.1.628-6.986.329-3.7H127.889v13.747Z" transform="translate(-63.775 -62.448)" fill="#fff"/>
  </g>
</svg>
