<svg width="122" height="167" viewBox="0 0 122 167" fill="none" xmlns="http://www.w3.org/2000/svg">
<g clip-path="url(#clip0)">
<path d="M122 32.8195L110.885 153.568L60.9253 167L11.1027 153.587L0 32.8195H122Z" fill="#264DE4"/>
<path d="M101.37 145.879L110.868 42.694H61V156.733L101.37 145.879Z" fill="#2965F1"/>
<path d="M25.4528 87.4849L26.8216 102.296H61V87.4849H25.4528Z" fill="#EBEBEB"/>
<path d="M61 57.5057H60.9472H22.7023L24.0907 72.3175H61V57.5057Z" fill="#EBEBEB"/>
<path d="M61.0001 141.363V125.952L60.9331 125.97L43.9233 121.515L42.836 109.702H34.5705H27.5042L29.6439 132.959L60.9298 141.382L61.0001 141.363Z" fill="#EBEBEB"/>
<path d="M28.7119 0H47.2103V7.50195H36.4476V15.0039H47.2103V22.5059H28.7119V0Z" fill="white"/>
<path d="M50.9099 0H69.4083V6.52344H58.6456V7.82812H69.4083V22.832H50.9099V15.9824H61.6726V14.6777H50.9099V0Z" fill="white"/>
<path d="M73.108 0H91.6064V6.52344H80.8437V7.82812H91.6064V22.832H73.108V15.9824H83.8707V14.6777H73.108V0Z" fill="white"/>
<path d="M79.7543 102.296L77.9815 121.506L60.9471 125.965V141.374L92.2579 132.959L92.4876 130.456L96.0766 91.4622L96.4493 87.4849L99.2065 57.5057H60.9471V72.3175H82.4685L81.0788 87.4849H60.9471V102.296H79.7543Z" fill="white"/>
</g>
<defs>
<clipPath id="clip0">
<rect width="122" height="167" fill="white"/>
</clipPath>
</defs>
</svg>
