<svg width="134" height="143" viewBox="0 0 134 143" fill="none" xmlns="http://www.w3.org/2000/svg">
<path d="M103.044 43.053C109.423 43.053 114.595 37.5338 114.595 30.7254C114.595 23.9171 109.423 18.3978 103.044 18.3978C96.6637 18.3978 91.4918 23.9171 91.4918 30.7254C91.4918 37.5338 96.6637 43.053 103.044 43.053Z" fill="white" stroke="white" stroke-width="1.5"/>
<path d="M117.973 81.5175C124.353 81.5175 129.525 75.9982 129.525 69.1899C129.525 62.3816 124.353 56.8623 117.973 56.8623C111.593 56.8623 106.421 62.3816 106.421 69.1899C106.421 75.9982 111.593 81.5175 117.973 81.5175Z" stroke="white" stroke-width="1.5"/>
<path d="M103.044 119.98C109.423 119.98 114.595 114.46 114.595 107.652C114.595 100.844 109.423 95.3243 103.044 95.3243C96.6637 95.3243 91.4918 100.844 91.4918 107.652C91.4918 114.46 96.6637 119.98 103.044 119.98Z" stroke="white" stroke-width="1.5"/>
<path d="M67 135.912C73.3798 135.912 78.5517 130.392 78.5517 123.584C78.5517 116.776 73.3798 111.256 67 111.256C60.6201 111.256 55.4482 116.776 55.4482 123.584C55.4482 130.392 60.6201 135.912 67 135.912Z" stroke="white" stroke-width="1.5"/>
<path d="M30.9564 119.98C37.3362 119.98 42.5081 114.46 42.5081 107.652C42.5081 100.844 37.3362 95.3243 30.9564 95.3243C24.5765 95.3243 19.4047 100.844 19.4047 107.652C19.4047 114.46 24.5765 119.98 30.9564 119.98Z" stroke="white" stroke-width="1.5"/>
<path d="M16.0291 81.5175C22.409 81.5175 27.5809 75.9982 27.5809 69.1899C27.5809 62.3816 22.409 56.8623 16.0291 56.8623C9.6493 56.8623 4.47742 62.3816 4.47742 69.1899C4.47742 75.9982 9.6493 81.5175 16.0291 81.5175Z" stroke="white" stroke-width="1.5"/>
<path d="M30.9564 43.053C37.3362 43.053 42.5081 37.5338 42.5081 30.7254C42.5081 23.9171 37.3362 18.3978 30.9564 18.3978C24.5765 18.3978 19.4047 23.9171 19.4047 30.7254C19.4047 37.5338 24.5765 43.053 30.9564 43.053Z" stroke="white" stroke-width="1.5"/>
<path d="M67 27.1207C73.3798 27.1207 78.5517 21.6015 78.5517 14.7932C78.5517 7.98482 73.3798 2.46558 67 2.46558C60.6201 2.46558 55.4482 7.98482 55.4482 14.7932C55.4482 21.6015 60.6201 27.1207 67 27.1207Z" stroke="white" stroke-width="1.5"/>
</svg>
